<svg xmlns="http://www.w3.org/2000/svg" width="280" height="20.208" viewBox="0 0 280 20.208"><title>hyperthreads-logo</title><polygon points="6.042 20.208 7.362 13.958 5.867 12.017 8.881 12.017 16.069 12.017 14.338 20.208 20.38 20.208 24.649 0 18.606 0 16.933 7.922 8.638 7.922 10.311 0 2.288 0 3.869 1.893 0 20.208 6.042 20.208" style="fill:#fff"/><polygon points="32.704 20.208 48.252 0 41.135 0 35.153 7.776 33.914 0 26.428 0 28.212 2.135 30.147 14.282 25.588 20.208 32.704 20.208" style="fill:#fff"/><path d="M65.283,39.9H49.7l1.556,1.862L47.383,60.1h6.042l1.731-8.19H68.787L71.325,39.9H65.283ZM63.61,47.819H56.02l.39-1.847-1.917-1.981h9.925Z" transform="translate(0 -39.896)" style="fill:#fff"/><polygon points="70.2 20.208 72.184 20.208 76.243 20.208 89.895 20.208 90.761 16.112 77.108 16.112 77.583 13.864 76.16 12.017 79.174 12.017 89.465 12.017 90.331 7.922 78.838 7.922 79.253 5.959 77.816 4.095 80.83 4.095 93.278 4.095 94.143 0 80.511 0 72.528 0 74.078 1.854 70.2 20.208" style="fill:#fff"/><path d="M93.257,60.1H99.3l1.329-6.292-1.462-1.9h4.425l3.833,8.19H114l-3.832-8.19h4.488L117.2,39.9H95.623l1.519,1.818Zm10.579-16.113h6.455l-.809,3.828h-7.588l.4-1.911-1.476-1.917Z" transform="translate(0 -39.896)" style="fill:#fff"/><polygon points="158.735 20.195 162.998 0.012 156.963 0.012 155.292 7.924 147.006 7.924 148.678 0.012 140.711 0.012 142.248 1.878 138.38 20.195 144.415 20.195 145.731 13.962 144.198 12.015 144.199 12.015 147.25 12.015 154.428 12.015 152.7 20.195 158.735 20.195" style="fill:#fff"/><path d="M169.888,53.769l-1.461-1.858h4.414l3.828,8.18h6.571l-3.828-8.18H183.9l2.535-12H164.94l1.466,1.779-3.888,18.4h6.035Zm3.2-9.77h6.444l-.807,3.821h-7.579l.4-1.9L170.036,44Z" transform="translate(0 -39.896)" style="fill:#fff"/><polygon points="188.422 0.012 189.812 1.699 185.905 20.195 187.885 20.195 191.94 20.195 205.577 20.195 206.44 16.105 192.804 16.105 193.274 13.881 191.806 12.015 194.858 12.015 205.146 12.015 206.012 7.924 194.532 7.924 194.951 5.941 193.505 4.102 196.556 4.102 208.954 4.102 209.817 0.012 196.203 0.012 188.422 0.012" style="fill:#fff"/><polygon points="263.598 4.102 266.65 4.102 279.136 4.102 280 0.012 266.386 0.012 258.351 0.012 259.943 1.944 257.815 12.015 259.784 12.015 263.85 12.015 271.449 12.015 270.584 16.105 256.952 16.105 256.087 20.195 269.72 20.195 275.756 20.195 275.758 20.195 276.623 16.105 276.619 16.105 278.291 8.193 278.282 8.193 278.339 7.924 264.714 7.924 265.115 6.03 263.598 4.102" style="fill:#fff"/><path d="M250.541,39.908h-15.36l1.39,1.686-3.907,18.5h15.474l5.052-4.05L253.2,56h-.021l3.4-16.093Zm-2.534,12h0l-.364,1.725L244.693,56h-5.13L241.7,45.88,240.22,44h9.458Z" transform="translate(0 -39.896)" style="fill:#fff"/><path d="M227.229,39.909H211.713l1.513,1.836-3.874,18.346h6.034l1.338-6.337-1.449-1.843h9.42l-1.729,8.18H229l1.728-8.18h.008l.864-4.091h-.008l1.67-7.911Zm-1.671,7.911h-7.58l.414-1.962L216.929,44h9.437Z" transform="translate(0 -39.896)" style="fill:#fff"/><polygon points="119.867 4.102 126.401 4.102 123.002 20.195 129.037 20.195 131.918 6.557 129.986 4.102 133.038 4.102 138.004 4.102 138.868 0.012 133.301 0.012 127.265 0.012 118.851 0.012 120.347 1.829 119.867 4.102" style="fill:#fff"/></svg>