<?xml version="1.0" encoding="utf-8"?>
<!-- Generator: Adobe Illustrator 22.0.0, SVG Export Plug-In . SVG Version: 6.00 Build 0)  -->
<svg version="1.0" id="Logo" xmlns="http://www.w3.org/2000/svg" xmlns:xlink="http://www.w3.org/1999/xlink" x="0px" y="0px"
	 viewBox="0 0 288.1 34.3" style="enable-background:new 0 0 288.1 34.3;" xml:space="preserve">
<style type="text/css">
	.st0{fill:#FFFFFF;}
</style>
<g>
	<polygon class="st0" points="238.5,0 214.3,0 201.9,34.3 226.1,34.3 	"/>
	<polygon class="st0" points="234.1,16 248.4,34.3 276.3,34.3 260.3,16.2 288.1,0 259.7,0 	"/>
	<path class="st0" d="M206.6,6.6L209,0h-61.9l-8.5,23.6c-0.5,1.5-0.6,3.2,0.5,4.5c0.4,0.4,3.1,3.6,3.7,4.2c1,1.1,2.2,2,4.2,2h49.6
		l2.4-6.5l-34.7,0c-2.1,0-3.1-1.6-2.6-3.2l1.6-4.3h38.4l2.4-6.6h-38.4l2.6-7.1H206.6z"/>
	<path class="st0" d="M135.5,0H73.9L61.5,34.3h23.6l10-27.7h17.6c1.9,0,2.6,1.4,2.2,2.7c-0.4,1.4-1,3.1-1.5,4.1
		c-0.6,1.4-2,2.5-4.1,2.5c-2.1,0-16.5,0-16.5,0l14.3,18.3h27.1l-12.2-13.7c0,0,4.9,0,7.3,0c3.4,0,5.4-1.8,6.3-4.1
		c1-2.6,3.3-8.9,4-11C140.9,2.1,138.9,0,135.5,0"/>
	<polygon class="st0" points="69.6,0 2.4,0 0,6.6 23.2,6.6 13.2,34.3 36,34.3 46,6.6 67.3,6.6 	"/>
</g>
</svg>
