<?xml version="1.0" encoding="UTF-8"?>
<svg width="553px" height="208px" viewBox="0 0 553 208" version="1.1" xmlns="http://www.w3.org/2000/svg" xmlns:xlink="http://www.w3.org/1999/xlink">
    <g stroke="none" stroke-width="1" fill="none" fill-rule="evenodd">
        <g>
            <rect id="Rectangle" fill="#135074" x="0" y="0" width="553" height="208"></rect>
            <rect id="Rectangle" fill="#E0237B" x="30" y="163" width="493" height="19"></rect>
            <rect id="Rectangle-Copy" fill="#E0237B" x="30" y="26" width="493" height="19"></rect>
            <g id="Text" transform="translate(30.000000, 51.000000)" fill="#FFFFFF">
                <path d="M0,-1.42108547e-14 L18.3064599,-1.42108547e-14 L18.3064599,61.0444384 C18.3064599,63.6578212 18.4568684,66.226127 18.7581023,68.7494028 C19.037809,71.0923566 19.616746,73.1670908 20.5123092,74.9671531 C21.3621909,76.6753966 22.5453813,78.0641979 24.0589519,79.1366167 C25.5891022,80.2207828 27.6551778,80.7040959 30.2197892,80.7040959 C34.6281177,80.7040959 37.8055676,79.3979111 39.5150493,76.4013816 C41.3790882,73.1339305 42.2265401,67.9914993 42.2265401,61.0444384 L42.2265401,4.26325641e-14 L60.533,-1.42108547e-14 L60.533,64.0444384 C60.533,78.1668736 57.7975365,88.5993452 52.5366117,95.4485321 C47.1566365,102.45271 39.7345825,106.01 30.2197892,106.01 C20.5665955,106.01 13.1307756,102.465282 7.84958811,95.5096707 C2.68801112,88.7115927 0,78.2594574 0,64.0444384 L0,-1.42108547e-14 Z" id="Path"></path>
                <polygon id="Path" points="156.311 105.418 138.477741 105.418 113.700801 45.0083406 113.533953 105.418 96 105.418 96 1.39437786e-14 113.738839 1.39437786e-14 138.610115 60.5626089 138.777036 -1.42108547e-14 156.311 4.20984119e-14"></polygon>
                <polygon id="Path" points="192.778 0 212.587 0 212.587 105.418 192.778 105.418"></polygon>
                <polygon id="Path" points="288.807052 23 288.807052 105.418 269.945948 105.418 269.945948 23 249.054 23 249.054 4.26325641e-14 309.699 -1.42108547e-14 309.699 23"></polygon>
                <polygon id="Path" points="398.22 105.418 345.166 105.418 345.166 -7.10542736e-15 398.468661 -7.10542736e-15 398.468661 22.7495462 364.061816 22.7495462 364.061816 39.4819748 396.557223 39.4819748 396.557223 60.8111008 364.061816 60.8111008 364.061816 80.6684538 398.22 80.6684538"></polygon>
                <path d="M485.232334,89.4029641 C482.549985,94.2201085 479.195952,97.9983726 475.190633,100.757061 C471.104218,103.571605 466.296427,105 460.753165,105 L430,105 L430,0 L460.753165,0 C465.397713,2.84217094e-14 469.721926,1.12345527 473.726768,3.36723037 C477.692458,5.58906992 481.138639,8.90888205 484.039723,13.3553173 C486.854975,17.6701985 489.069318,23.0583363 490.655373,29.5325122 C492.213265,35.8917253 493,43.3581578 493,51.9341737 C493,59.4317873 492.362777,66.3521643 491.094078,72.6961259 C489.804143,79.1462797 487.844,84.7127569 485.232334,89.4029641 Z M450,83 L459.207547,83 C461.030979,83 462.7986,82.5486565 464.513743,81.6598315 C466.253614,80.7581914 467.77899,79.2387415 469.134678,77.1540917 C470.603419,74.8955987 471.760666,71.9438623 472.641319,68.314997 C473.553433,64.5564939 474,59.9721383 474,54.5644444 C474,49.5613197 473.67991,45.0443922 473.034588,41.0139765 C472.411781,37.1241856 471.399667,33.7888925 469.975604,31.0158721 C468.64352,28.4219597 466.893351,26.4212991 464.698393,25.0390493 C462.501951,23.6558656 459.783508,23 456.566038,23 L450,23 L450,83 Z" id="Combined-Shape"></path>
            </g>
        </g>
    </g>
</svg>